<svg width="198" height="55" viewBox="0 0 198 55" fill="none" xmlns="http://www.w3.org/2000/svg">
<g filter="url(#filter0_d_1_4)">
<path d="M25.2621 10.8182C25.0803 8.64773 24.1939 6.89205 22.603 5.55114C21.0234 4.21023 18.978 3.53977 16.4666 3.53977C14.7734 3.53977 13.2678 3.85227 11.9496 4.47727C10.6314 5.10227 9.5973 5.95455 8.8473 7.03409C8.0973 8.11364 7.7223 9.35227 7.7223 10.75C7.7223 11.6477 7.89276 12.4602 8.23367 13.1875C8.58594 13.9034 9.08026 14.5455 9.71662 15.1136C10.353 15.6705 11.1087 16.1591 11.9837 16.5795C12.8587 17 13.8246 17.3693 14.8814 17.6875L18.6996 18.8125C20.0064 19.2102 21.2109 19.6705 22.3132 20.1932C23.4268 20.7159 24.3928 21.3409 25.2109 22.0682C26.0405 22.7841 26.6825 23.625 27.1371 24.5909C27.603 25.5568 27.8359 26.6705 27.8359 27.9318C27.8359 29.7727 27.3587 31.4205 26.4041 32.875C25.4609 34.3295 24.1143 35.4773 22.3643 36.3182C20.6257 37.1477 18.5746 37.5625 16.2109 37.5625C13.9609 37.5625 12.0007 37.1818 10.3303 36.4205C8.67116 35.6591 7.35866 34.6023 6.39276 33.25C5.42685 31.8864 4.88139 30.3182 4.75639 28.5455H6.93821C7.05185 29.9886 7.51207 31.2386 8.31889 32.2955C9.13707 33.3409 10.2223 34.1477 11.5746 34.7159C12.9268 35.2841 14.4723 35.5682 16.2109 35.5682C18.0859 35.5682 19.7393 35.25 21.1712 34.6136C22.603 33.9659 23.7223 33.0682 24.5291 31.9205C25.3359 30.7727 25.7393 29.4375 25.7393 27.9148C25.7393 26.6875 25.4496 25.6364 24.87 24.7614C24.2905 23.8864 23.4325 23.1307 22.2962 22.4943C21.1712 21.858 19.7734 21.2898 18.103 20.7898L14.0291 19.5625C11.3018 18.733 9.21662 17.6023 7.77344 16.1705C6.34162 14.7386 5.62571 12.9545 5.62571 10.8182C5.62571 9.02273 6.10298 7.43182 7.05753 6.04545C8.01207 4.64773 9.30753 3.55114 10.9439 2.75568C12.5916 1.96023 14.4496 1.5625 16.5178 1.5625C18.5973 1.5625 20.4325 1.96591 22.0234 2.77273C23.6143 3.56818 24.8757 4.66477 25.8075 6.0625C26.7393 7.44886 27.2564 9.03409 27.3587 10.8182H25.2621ZM35.5234 46.8182V10.8182H37.5518V16.6648H37.8075C38.2166 15.5398 38.7905 14.5057 39.5291 13.5625C40.2791 12.6193 41.2053 11.8636 42.3075 11.2955C43.4212 10.7159 44.728 10.4261 46.228 10.4261C48.3416 10.4261 50.1825 11.0057 51.7507 12.1648C53.3189 13.3239 54.5348 14.9261 55.3984 16.9716C56.2621 19.0057 56.6939 21.3409 56.6939 23.9773C56.6939 26.6136 56.2564 28.9545 55.3814 31C54.5178 33.0341 53.3018 34.6364 51.7337 35.8068C50.1768 36.9659 48.353 37.5455 46.2621 37.5455C44.7734 37.5455 43.4666 37.2614 42.3416 36.6932C41.228 36.125 40.2905 35.3693 39.5291 34.4261C38.7791 33.4716 38.2053 32.4261 37.8075 31.2898H37.603V46.8182H35.5234ZM37.5689 23.9602C37.5689 26.1875 37.9098 28.1818 38.5916 29.9432C39.2734 31.6932 40.2507 33.0795 41.5234 34.1023C42.7962 35.1136 44.3132 35.6193 46.0746 35.6193C47.8587 35.6193 49.3871 35.108 50.6598 34.0852C51.9439 33.0511 52.9212 31.6534 53.5916 29.892C54.2734 28.1307 54.6143 26.1534 54.6143 23.9602C54.6143 21.767 54.2791 19.7955 53.6087 18.0455C52.9382 16.2955 51.9666 14.9148 50.6939 13.9034C49.4212 12.8807 47.8814 12.3693 46.0746 12.3693C44.2905 12.3693 42.7621 12.875 41.4893 13.8864C40.228 14.8864 39.2564 16.2614 38.5746 18.0114C37.9041 19.75 37.5689 21.733 37.5689 23.9602ZM74.093 37.5455C71.7294 37.5455 69.6726 36.9602 67.9226 35.7898C66.1726 34.6193 64.8203 33.017 63.8658 30.983C62.9112 28.9489 62.4339 26.6307 62.4339 24.0284C62.4339 21.4148 62.9112 19.0852 63.8658 17.0398C64.8317 14.9943 66.1555 13.3807 67.8374 12.1989C69.5192 11.017 71.4396 10.4261 73.5987 10.4261C75.0646 10.4261 76.451 10.7216 77.7578 11.3125C79.076 11.892 80.2351 12.733 81.2351 13.8352C82.2464 14.9375 83.0362 16.267 83.6044 17.8239C84.184 19.3807 84.4737 21.1307 84.4737 23.0739V24.3693H63.7464V22.4773H82.3942C82.3942 20.5795 82.0078 18.8693 81.2351 17.3466C80.4624 15.8239 79.4112 14.6136 78.0817 13.7159C76.7521 12.8182 75.2578 12.3693 73.5987 12.3693C71.8601 12.3693 70.3089 12.858 68.9453 13.8352C67.593 14.8011 66.5192 16.108 65.7237 17.7557C64.9396 19.4034 64.5305 21.2443 64.4964 23.2784V24.1307C64.4964 26.3125 64.8771 28.2727 65.6385 30.0114C66.4112 31.7386 67.5135 33.108 68.9453 34.1193C70.3771 35.1193 72.093 35.6193 74.093 35.6193C75.5249 35.6193 76.7464 35.3807 77.7578 34.9034C78.7805 34.4148 79.6158 33.8239 80.2635 33.1307C80.9112 32.4375 81.3999 31.767 81.7294 31.1193L83.6215 31.8864C83.2237 32.7614 82.6044 33.6364 81.7635 34.5114C80.9339 35.375 79.8771 36.0966 78.593 36.6761C77.3203 37.2557 75.8203 37.5455 74.093 37.5455ZM101.843 37.5455C99.4794 37.5455 97.4226 36.9602 95.6726 35.7898C93.9226 34.6193 92.5703 33.017 91.6158 30.983C90.6612 28.9489 90.1839 26.6307 90.1839 24.0284C90.1839 21.4148 90.6612 19.0852 91.6158 17.0398C92.5817 14.9943 93.9055 13.3807 95.5874 12.1989C97.2692 11.017 99.1896 10.4261 101.349 10.4261C102.815 10.4261 104.201 10.7216 105.508 11.3125C106.826 11.892 107.985 12.733 108.985 13.8352C109.996 14.9375 110.786 16.267 111.354 17.8239C111.934 19.3807 112.224 21.1307 112.224 23.0739V24.3693H91.4964V22.4773H110.144C110.144 20.5795 109.758 18.8693 108.985 17.3466C108.212 15.8239 107.161 14.6136 105.832 13.7159C104.502 12.8182 103.008 12.3693 101.349 12.3693C99.6101 12.3693 98.0589 12.858 96.6953 13.8352C95.343 14.8011 94.2692 16.108 93.4737 17.7557C92.6896 19.4034 92.2805 21.2443 92.2464 23.2784V24.1307C92.2464 26.3125 92.6271 28.2727 93.3885 30.0114C94.1612 31.7386 95.2635 33.108 96.6953 34.1193C98.1271 35.1193 99.843 35.6193 101.843 35.6193C103.275 35.6193 104.496 35.3807 105.508 34.9034C106.531 34.4148 107.366 33.8239 108.013 33.1307C108.661 32.4375 109.15 31.767 109.479 31.1193L111.371 31.8864C110.974 32.7614 110.354 33.6364 109.513 34.5114C108.684 35.375 107.627 36.0966 106.343 36.6761C105.07 37.2557 103.57 37.5455 101.843 37.5455ZM129.201 37.5455C126.974 37.5455 125.013 36.9602 123.32 35.7898C121.627 34.608 120.303 32.9943 119.349 30.9489C118.406 28.9034 117.934 26.5852 117.934 23.9943C117.934 21.4034 118.411 19.0852 119.366 17.0398C120.32 14.9943 121.644 13.3807 123.337 12.1989C125.031 11.017 126.979 10.4261 129.184 10.4261C130.843 10.4261 132.354 10.767 133.718 11.4489C135.093 12.1307 136.229 13.0795 137.127 14.2955C138.036 15.5114 138.616 16.9205 138.866 18.5227H136.752C136.411 16.75 135.559 15.2841 134.195 14.125C132.843 12.9545 131.178 12.3693 129.201 12.3693C127.428 12.3693 125.849 12.8693 124.462 13.8693C123.076 14.858 121.985 16.2273 121.19 17.9773C120.394 19.7159 119.996 21.7102 119.996 23.9602C119.996 26.1761 120.383 28.1648 121.156 29.9261C121.928 31.6761 123.008 33.0625 124.394 34.0852C125.781 35.108 127.383 35.6193 129.201 35.6193C130.485 35.6193 131.656 35.3636 132.712 34.8523C133.781 34.3409 134.673 33.6136 135.388 32.6705C136.104 31.7273 136.576 30.625 136.803 29.3636H138.917C138.667 30.9773 138.099 32.3977 137.212 33.625C136.326 34.8523 135.195 35.8125 133.82 36.5057C132.445 37.1989 130.906 37.5455 129.201 37.5455ZM146.11 37V10.8182H148.173V37H146.11ZM147.15 6.18182C146.695 6.18182 146.298 6.02273 145.957 5.70454C145.627 5.38636 145.462 5 145.462 4.54545C145.462 4.09091 145.627 3.70454 145.957 3.38636C146.286 3.06818 146.684 2.90909 147.15 2.90909C147.604 2.90909 147.996 3.06818 148.326 3.38636C148.667 3.70454 148.837 4.09091 148.837 4.54545C148.837 5 148.673 5.38636 148.343 5.70454C148.013 6.02273 147.616 6.18182 147.15 6.18182Z" fill="white"/>
<path d="M167.349 10.8182V13.4602H154.479V10.8182H167.349ZM158.502 37V6.98295C158.502 5.57386 158.826 4.38636 159.474 3.42045C160.133 2.45454 160.991 1.72159 162.048 1.22159C163.104 0.721589 164.224 0.471589 165.406 0.471589C166.201 0.471589 166.86 0.539771 167.383 0.676135C167.917 0.801135 168.337 0.926135 168.644 1.05114L167.758 3.71023C167.531 3.64205 167.252 3.5625 166.923 3.47159C166.593 3.38068 166.178 3.33523 165.678 3.33523C164.36 3.33523 163.343 3.70455 162.627 4.44318C161.911 5.18182 161.553 6.23864 161.553 7.61364L161.536 37H158.502ZM175.518 46.8182C174.915 46.8182 174.353 46.7614 173.83 46.6477C173.308 46.5341 172.893 46.4091 172.586 46.2727L173.404 43.5966C174.438 43.9148 175.359 44.0284 176.165 43.9375C176.972 43.858 177.688 43.4943 178.313 42.8466C178.938 42.2102 179.495 41.233 179.984 39.9148L180.938 37.2557L171.308 10.8182H174.597L182.37 32.9943H182.609L190.381 10.8182H193.671L182.592 41.142C182.126 42.4034 181.552 43.4545 180.87 44.2955C180.188 45.1477 179.398 45.7784 178.501 46.1875C177.614 46.608 176.62 46.8182 175.518 46.8182Z" fill="#12D4FF"/>
</g>
<defs>
<filter id="filter0_d_1_4" x="0.756393" y="0.471588" width="196.915" height="54.3466" filterUnits="userSpaceOnUse" color-interpolation-filters="sRGB">
<feFlood flood-opacity="0" result="BackgroundImageFix"/>
<feColorMatrix in="SourceAlpha" type="matrix" values="0 0 0 0 0 0 0 0 0 0 0 0 0 0 0 0 0 0 127 0" result="hardAlpha"/>
<feOffset dy="4"/>
<feGaussianBlur stdDeviation="2"/>
<feComposite in2="hardAlpha" operator="out"/>
<feColorMatrix type="matrix" values="0 0 0 0 0 0 0 0 0 0 0 0 0 0 0 0 0 0 0.25 0"/>
<feBlend mode="normal" in2="BackgroundImageFix" result="effect1_dropShadow_1_4"/>
<feBlend mode="normal" in="SourceGraphic" in2="effect1_dropShadow_1_4" result="shape"/>
</filter>
</defs>
</svg>
